<?xml version="1.0" encoding="iso-8859-1"?>
<!-- Generator: Adobe Illustrator 19.0.0, SVG Export Plug-In . SVG Version: 6.00 Build 0)  -->
<svg version="1.1" id="Capa_1" xmlns="http://www.w3.org/2000/svg" xmlns:xlink="http://www.w3.org/1999/xlink" x="0px" y="0px"
	 viewBox="0 0 512 512" style="enable-background:new 0 0 512 512;" xml:space="preserve">
<path style="fill:#FFFFFF;" d="M355,10H156c-50.81,0-92,41.19-92,92l0,0c0,50.81,41.19,92,92,92v45l45-45h110l45,45v-45.013
	c50.349-0.537,91-41.511,91-91.987l0,0C447,51.19,405.81,10,355,10z"/>
<circle style="fill:#A0E557;" cx="256.13" cy="102" r="52"/>
<g>
	<path style="fill:#FF5D5D;" d="M129.709,347.035H74.291C38.784,347.035,10,375.819,10,411.326V502h184v-90.674
		C194,375.819,165.216,347.035,129.709,347.035z"/>
	<path style="fill:#FF5D5D;" d="M129.709,347.034H74.291C38.784,347.034,10,375.819,10,411.325V502h184v-90.675
		C194,375.819,165.216,347.034,129.709,347.034z"/>
</g>
<path style="fill:#FCC69D;" d="M102,246.078L102,246.078c-22.986,0-41.619,18.633-41.619,41.619v17.718
	c0,22.986,18.633,41.619,41.619,41.619l0,0c22.986,0,41.619-18.633,41.619-41.619v-17.718
	C143.619,264.712,124.986,246.078,102,246.078z"/>
<path style="fill:#FF5D5D;" d="M437.709,347.035h-55.418c-35.507,0-64.291,28.784-64.291,64.291V502h184v-90.674
	C502,375.819,473.216,347.035,437.709,347.035z"/>
<path style="fill:#72D8FF;" d="M437.709,347.034h-55.418c-35.507,0-64.291,28.784-64.291,64.291V502h184v-90.675
	C502,375.819,473.216,347.034,437.709,347.034z"/>
<path style="fill:#FCC69D;" d="M410,246.078L410,246.078c-22.986,0-41.619,18.633-41.619,41.619v17.718
	c0,22.986,18.633,41.619,41.619,41.619l0,0c22.986,0,41.619-18.633,41.619-41.619v-17.718
	C451.619,264.712,432.986,246.078,410,246.078z"/>
<path d="M356.002,249c1.288,0,2.588-0.25,3.825-0.762c3.737-1.548,6.173-5.194,6.173-9.239v-35.591
	c23.267-2.482,44.811-12.811,61.487-29.652C446.519,154.536,457,129.052,457,102C457,45.757,411.243,0,355,0H156
	C99.757,0,54,45.757,54,102c0,52.869,40.434,96.472,92,101.514V239c0,4.044,2.437,7.691,6.173,9.239
	c3.737,1.548,8.038,0.693,10.898-2.167L205.142,204h101.716l42.071,42.071C350.842,247.984,353.399,249,356.002,249z M346,193.987
	v20.871l-27.929-27.929C316.196,185.054,313.652,184,311,184H201c-2.652,0-5.196,1.054-7.071,2.929L166,214.858V194
	c0-5.523-4.477-10-10-10c-45.215,0-82-36.785-82-82s36.785-82,82-82h199c45.215,0,82,36.785,82,82
	c0,44.731-36.384,81.511-81.106,81.988C350.413,184.046,346,188.506,346,193.987z"/>
<path d="M309.929,53.929l-7.221,7.221C291.336,48.199,274.676,40,256.127,40c-34.187,0-62,27.813-62,62s27.813,62,62,62
	s62-27.813,62-62c0-8.273-1.641-16.167-4.595-23.389l10.539-10.539c3.905-3.905,3.905-10.237,0-14.143
	C320.166,50.023,313.834,50.023,309.929,53.929z M298.127,102c0,23.159-18.841,42-42,42s-42-18.841-42-42s18.841-42,42-42
	c13.035,0,24.703,5.97,32.412,15.319L264.5,99.358l-10.429-10.429c-3.905-3.905-10.237-3.905-14.143,0
	c-3.905,3.905-3.905,10.237,0,14.143l17.5,17.5c1.953,1.953,4.512,2.929,7.071,2.929s5.119-0.976,7.071-2.929l25.902-25.902
	C297.895,97.052,298.127,99.499,298.127,102z"/>
<path d="M141.951,338.061c7.287-8.902,11.668-20.271,11.668-32.646v-17.718c0-28.463-23.156-51.619-51.619-51.619
	s-51.619,23.156-51.619,51.619v17.718c0,12.375,4.381,23.744,11.668,32.646C26.892,343.917,0,374.532,0,411.326V502
	c0,5.523,4.477,10,10,10h184c5.523,0,10-4.477,10-10v-90.674C204,374.532,177.108,343.917,141.951,338.061z M70.381,287.697
	c0-17.435,14.184-31.619,31.619-31.619s31.619,14.184,31.619,31.619v17.718c0,17.435-14.184,31.619-31.619,31.619
	s-31.619-14.184-31.619-31.619V287.697z M184,492H20v-80.674c0-29.936,24.355-54.291,54.291-54.291H92v25.233
	c0,5.523,4.477,10,10,10s10-4.477,10-10v-25.233h17.709c29.936,0,54.291,24.355,54.291,54.291V492z"/>
<path d="M449.951,338.061c7.287-8.902,11.668-20.271,11.668-32.646v-17.718c0-28.463-23.156-51.619-51.619-51.619
	s-51.619,23.156-51.619,51.619v17.718c0,12.375,4.381,23.744,11.668,32.646C334.892,343.917,308,374.532,308,411.326V502
	c0,5.523,4.477,10,10,10h184c5.523,0,10-4.477,10-10v-90.674C512,374.532,485.108,343.917,449.951,338.061z M378.381,287.697
	c0-17.435,14.184-31.619,31.619-31.619s31.619,14.184,31.619,31.619v17.718c0,17.435-14.184,31.619-31.619,31.619
	s-31.619-14.184-31.619-31.619V287.697z M492,492H328v-80.674c0-29.936,24.355-54.291,54.291-54.291H400v25.233
	c0,5.523,4.477,10,10,10s10-4.477,10-10v-25.233h17.709c29.936,0,54.291,24.355,54.291,54.291V492z"/>
<path d="M410,408.52c-2.63,0-5.21,1.06-7.07,2.92c-1.86,1.86-2.93,4.44-2.93,7.07c0,2.64,1.07,5.21,2.93,7.08
	c1.86,1.86,4.44,2.92,7.07,2.92s5.21-1.06,7.07-2.92c1.86-1.87,2.93-4.44,2.93-7.08c0-2.63-1.07-5.2-2.93-7.07
	C415.21,409.58,412.63,408.52,410,408.52z"/>
<path d="M102,408.52c-2.63,0-5.21,1.06-7.07,2.92c-1.86,1.86-2.93,4.44-2.93,7.07c0,2.64,1.07,5.21,2.93,7.08
	c1.86,1.86,4.44,2.92,7.07,2.92s5.21-1.06,7.07-2.92c1.86-1.87,2.93-4.44,2.93-7.08c0-2.63-1.07-5.2-2.93-7.07
	C107.21,409.58,104.63,408.52,102,408.52z"/>
<g>
</g>
<g>
</g>
<g>
</g>
<g>
</g>
<g>
</g>
<g>
</g>
<g>
</g>
<g>
</g>
<g>
</g>
<g>
</g>
<g>
</g>
<g>
</g>
<g>
</g>
<g>
</g>
<g>
</g>
</svg>
